
<svg width="24" height="24" viewBox="0 0 24 24" fill="none" xmlns="http://www.w3.org/2000/svg">
<g clip-path="url(#clip0_70_2)">
<path d="M10.55 2.533C10.9558 2.19102 11.4693 2.00347 12 2.00347C12.5307 2.00347 13.0442 2.19102 13.45 2.533L20.2 8.228C20.2792 8.29456 20.3531 8.36603 20.4215 8.44177C20.7919 8.85194 21 9.3875 21 9.948V19.75C21 20.2141 20.8156 20.6592 20.4874 20.9874C20.1592 21.3156 19.7141 21.5 19.25 21.5H16.25C15.7859 21.5 15.3408 21.3156 15.0126 20.9874C14.6844 20.6592 14.5 20.2141 14.5 19.75V14.75C14.5 14.5511 14.421 14.3603 14.2803 14.2197C14.1397 14.079 13.9489 14 13.75 14H10.25C10.0511 14 9.86032 14.079 9.71967 14.2197C9.57902 14.3603 9.5 14.5511 9.5 14.75V19.75C9.5 20.2141 9.31563 20.6592 8.98744 20.9874C8.65925 21.3156 8.21413 21.5 7.75 21.5H4.75C4.52019 21.5 4.29262 21.4547 4.0803 21.3668C3.86798 21.2788 3.67507 21.1499 3.51256 20.9874C3.35006 20.8249 3.22116 20.632 3.13321 20.4197C3.04527 20.2074 3 19.9798 3 19.75V9.947C3 9.38693 3.20837 8.85112 3.57931 8.44025C3.64748 8.36474 3.72113 8.29345 3.8 8.227L10.55 2.533Z" fill="#212121"/>
<path d="M4.75 21.5C4.52019 21.5 4.29262 21.4547 4.0803 21.3668C3.86798 21.2788 3.67507 21.1499 3.51256 20.9874C3.35006 20.8249 3.22116 20.632 3.13321 20.4197C3.04527 20.2074 3 19.9798 3 19.75V21.5H4.75Z" fill="#212121"/>
<path d="M9.5 19.75C9.5 20.2141 9.31563 20.6592 8.98744 20.9874C8.65925 21.3156 8.21413 21.5 7.75 21.5H9.5V19.75Z" fill="#212121"/>
<path d="M16.25 21.5C15.7859 21.5 15.3408 21.3156 15.0126 20.9874C14.6844 20.6592 14.5 20.2141 14.5 19.75V21.5H16.25Z" fill="#212121"/>
<path d="M21 19.75C21 20.2141 20.8156 20.6592 20.4874 20.9874C20.1592 21.3156 19.7141 21.5 19.25 21.5H21V19.75Z" fill="#212121"/>
<path d="M3 9.947C3 9.38693 3.20837 8.85112 3.57931 8.44025L3 9V9.947Z" fill="#212121"/>
<path d="M20.4215 8.44177C20.7919 8.85194 21 9.3875 21 9.948V9L20.4215 8.44177Z" fill="#212121"/>
<path d="M10.55 2.533C10.9558 2.19102 11.4693 2.00347 12 2.00347C12.5307 2.00347 13.0442 2.19102 13.45 2.533L20.2 8.228C20.2792 8.29456 20.3531 8.36603 20.4215 8.44177L21 9L12 0L3 9L3.57931 8.44025C3.64748 8.36474 3.72113 8.29345 3.8 8.227L10.55 2.533Z" fill="#212121"/>
</g>
<defs>
<clipPath id="clip0_70_2">
<rect width="24" height="24" fill="white"/>
</clipPath>
</defs>
</svg>