<svg width="24" height="24" viewBox="0 0 24 24" fill="none" xmlns="http://www.w3.org/2000/svg">
<path d="M17.75 2.00702C17.7535 2.00702 17.7571 2.00703 17.7606 2.00704C18.3269 2.00963 18.8716 2.22572 19.2858 2.61239C19.7025 3.00146 19.956 3.53423 19.995 4.10302L20 4.25702V19.755C20.0001 20.3251 19.7837 20.874 19.3946 21.2908C19.0056 21.7075 18.4728 21.961 17.904 22L17.75 22.005H6.25C5.67987 22.0051 5.13098 21.7887 4.71425 21.3997C4.29751 21.0106 4.04402 20.4778 4.005 19.909L4 19.755V4.25702C3.99993 3.68689 4.2163 3.138 4.60537 2.72127C4.99444 2.30453 5.52721 2.05104 6.096 2.01202L6.25 2.00702H17.75ZM7.75 7.00002C7.55109 7.00002 7.36032 7.07904 7.21967 7.21969C7.07902 7.36034 7 7.55111 7 7.75002C7 7.94893 7.07902 8.1397 7.21967 8.28035C7.36032 8.421 7.55109 8.50002 7.75 8.50002H16.25C16.4489 8.50002 16.6397 8.421 16.7803 8.28035C16.921 8.1397 17 7.94893 17 7.75002C17 7.55111 16.921 7.36034 16.7803 7.21969C16.6397 7.07904 16.4489 7.00002 16.25 7.00002H7.75ZM7 11.75C7 12.164 7.336 12.5 7.75 12.5H16.25C16.4489 12.5 16.6397 12.421 16.7803 12.2803C16.921 12.1397 17 11.9489 17 11.75C17 11.5511 16.921 11.3603 16.7803 11.2197C16.6397 11.079 16.4489 11 16.25 11H7.75C7.55109 11 7.36032 11.079 7.21967 11.2197C7.07902 11.3603 7 11.5511 7 11.75ZM7.75 15C7.55109 15 7.36032 15.079 7.21967 15.2197C7.07902 15.3603 7 15.5511 7 15.75C7 15.9489 7.07902 16.1397 7.21967 16.2803C7.36032 16.421 7.55109 16.5 7.75 16.5H16.25C16.4489 16.5 16.6397 16.421 16.7803 16.2803C16.921 16.1397 17 15.9489 17 15.75C17 15.5511 16.921 15.3603 16.7803 15.2197C16.6397 15.079 16.4489 15 16.25 15H7.75Z" fill="#212121"/>
<path d="M4 4.25702C3.99993 3.68689 4.2163 3.138 4.60537 2.72127C4.99444 2.30453 5.52721 2.05104 6.096 2.01202L6.25 2.00702L4 2L4 4.25702Z" fill="#212121"/>
<path d="M17.7606 2.00704C18.3269 2.00963 18.8716 2.22572 19.2858 2.61239C19.7025 3.00146 19.956 3.53423 19.995 4.10302V2.01202L17.7606 2.00704Z" fill="#212121"/>
<path d="M6.25 22.005C5.67987 22.0051 5.13098 21.7887 4.71425 21.3997C4.29751 21.0106 4.04402 20.4778 4.005 19.909V22.005H6.25Z" fill="#212121"/>
<path d="M20 19.755C20.0001 20.3251 19.7837 20.874 19.3946 21.2908C19.0056 21.7075 18.4728 21.961 17.904 22L17.75 22.005L20 22V19.755Z" fill="#212121"/>
</svg>